<?xml version="1.0" encoding="UTF-8" standalone="no"?>
<!-- Created with Inkscape (http://www.inkscape.org/) -->

<svg
   xmlns:dc="http://purl.org/dc/elements/1.1/"
   xmlns:cc="http://creativecommons.org/ns#"
   xmlns:rdf="http://www.w3.org/1999/02/22-rdf-syntax-ns#"
   xmlns:svg="http://www.w3.org/2000/svg"
   xmlns="http://www.w3.org/2000/svg"
   xmlns:sodipodi="http://sodipodi.sourceforge.net/DTD/sodipodi-0.dtd"
   xmlns:inkscape="http://www.inkscape.org/namespaces/inkscape"
   version="1.1"
   width="315"
   height="45"
   id="svg2"
   inkscape:version="0.48.2 r9819"
   sodipodi:docname="logo.svg">
  <sodipodi:namedview
     pagecolor="#ffffff"
     bordercolor="#666666"
     borderopacity="1"
     objecttolerance="10"
     gridtolerance="10"
     guidetolerance="10"
     inkscape:pageopacity="0"
     inkscape:pageshadow="2"
     inkscape:window-width="1005"
     inkscape:window-height="753"
     id="namedview3052"
     showgrid="false"
     inkscape:zoom="1.1174603"
     inkscape:cx="193.29545"
     inkscape:cy="58.295455"
     inkscape:window-x="369"
     inkscape:window-y="140"
     inkscape:window-maximized="0"
     inkscape:current-layer="svg2" />
  <defs
     id="defs4" />
  <metadata
     id="metadata7">
    <rdf:RDF>
      <cc:Work
         rdf:about="">
        <dc:format>image/svg+xml</dc:format>
        <dc:type
           rdf:resource="http://purl.org/dc/dcmitype/StillImage" />
        <dc:title />
      </cc:Work>
    </rdf:RDF>
  </metadata>
  <g
     id="text2985"
     style="font-size:40px;font-style:normal;font-variant:normal;font-weight:normal;font-stretch:normal;line-height:125%;letter-spacing:0px;word-spacing:0px;fill:#333333;fill-opacity:1;stroke:none;font-family:Patrick Hand;-inkscape-font-specification:Patrick Hand"
     transform="translate(-59.247765,-207.87639)">
    <path
       inkscape:connector-curvature="0"
       id="path3055"
       style="font-style:italic;font-weight:900;fill:#333333;font-family:Roboto;-inkscape-font-specification:Roboto Heavy Italic"
       d="m 68.806358,239.26311 11.230469,0 -1.015625,5.07812 -17.773437,0 5.683593,-28.4375 6.542969,0 -4.667969,23.35938" />
    <path
       inkscape:connector-curvature="0"
       id="path3057"
       style="font-style:italic;font-weight:900;fill:#333333;font-family:Roboto;-inkscape-font-specification:Roboto Heavy Italic"
       d="m 88.142296,244.34123 -6.542969,0 4.21875,-21.13281 6.542969,0 -4.21875,21.13281 m 5.214844,-26.03515 -6.542969,0 0.878906,-4.4336 6.542969,0 -0.878906,4.4336" />
    <path
       inkscape:connector-curvature="0"
       id="path3059"
       style="font-style:italic;font-weight:900;fill:#333333;font-family:Roboto;-inkscape-font-specification:Roboto Heavy Italic"
       d="m 101.77511,225.94279 c 0.83332,-1.00258 1.77082,-1.77081 2.8125,-2.30468 1.04165,-0.54686 2.1354,-0.82029 3.28125,-0.82032 1.78383,3e-5 3.11196,0.68362 3.98437,2.05079 0.87238,1.3672 1.02212,3.4896 0.44922,6.36718 l -2.61719,13.10547 -6.52343,0 2.61718,-13.125 c 0.26041,-1.28905 0.22785,-2.16144 -0.0977,-2.61719 -0.32554,-0.46873 -0.92449,-0.7031 -1.79688,-0.70312 -0.46876,2e-5 -0.92449,0.11069 -1.36718,0.33203 -0.44272,0.20835 -0.84637,0.50132 -1.21094,0.87891 l -3.046877,15.23437 -6.503906,0 4.21875,-21.13281 6.132813,0 -0.33203,2.73437" />
    <path
       inkscape:connector-curvature="0"
       id="path3061"
       style="font-style:italic;font-weight:900;fill:#333333;font-family:Roboto;-inkscape-font-specification:Roboto Heavy Italic"
       d="m 114.43136,233.42326 c 0.6901,-3.51561 1.80989,-6.15883 3.35937,-7.92968 1.54948,-1.78384 3.56119,-2.67576 6.03516,-2.67579 0.97655,3e-5 1.85546,0.2344 2.63672,0.70313 0.78123,0.45575 1.41925,1.10028 1.91406,1.93359 l 0.82031,-2.24609 5.72266,0 -4.0625,20.3125 c -0.59898,3.00781 -1.96616,5.31901 -4.10156,6.93359 -2.12241,1.61458 -4.77215,2.42187 -7.94922,2.42188 -0.96355,-10e-6 -1.9987,-0.15626 -3.10547,-0.46875 -1.10677,-0.29949 -2.10287,-0.69662 -2.98828,-1.19141 l 2.03125,-4.88281 c 0.79427,0.41666 1.58203,0.72265 2.36328,0.91797 0.78124,0.20833 1.68619,0.3125 2.71484,0.3125 1.11979,0 2.08333,-0.3711 2.89063,-1.11328 0.8203,-0.74219 1.36066,-1.73177 1.62109,-2.96875 l 0.0977,-0.52735 c -0.65105,0.58594 -1.33465,1.03516 -2.05078,1.34766 -0.70314,0.29948 -1.44532,0.44922 -2.22657,0.44922 -2.26563,0 -3.95833,-1.04818 -5.07812,-3.14453 -1.10677,-2.09635 -1.34766,-4.6875 -0.72266,-7.77344 l 0.0781,-0.41016 m 6.42578,0.41016 c -0.39063,1.90105 -0.48829,3.35287 -0.29297,4.35547 0.19531,0.98959 0.81379,1.48438 1.85547,1.48437 0.57291,1e-5 1.11327,-0.14322 1.62109,-0.42968 0.5078,-0.29948 0.97004,-0.72265 1.38672,-1.26954 l 1.81641,-9.12109 c -0.19533,-0.3255 -0.4883,-0.56639 -0.87891,-0.72266 -0.37762,-0.15623 -0.85288,-0.23435 -1.42578,-0.23437 -0.95053,2e-5 -1.77735,0.50132 -2.48047,1.50391 -0.69011,0.98959 -1.19792,2.33074 -1.52344,4.02343 l -0.0781,0.41016" />
    <path
       inkscape:connector-curvature="0"
       id="path3063"
       style="font-style:italic;font-weight:900;fill:#333333;font-family:Roboto;-inkscape-font-specification:Roboto Heavy Italic"
       d="m 146.30636,244.34123 0.0781,-2.26562 c -0.79428,0.88542 -1.68621,1.55599 -2.67578,2.01172 -0.97657,0.4427 -2.04428,0.66406 -3.20312,0.66406 -1.91407,0 -3.33985,-0.71615 -4.27735,-2.14844 -0.9375,-1.43229 -1.11328,-3.60025 -0.52734,-6.50391 l 2.57812,-12.89062 6.50391,0 -2.57812,12.92969 c -0.26043,1.26303 -0.26043,2.16797 0,2.71484 0.2604,0.54688 0.7552,0.82032 1.48437,0.82031 0.55989,1e-5 1.08723,-0.0911 1.58203,-0.27343 0.49478,-0.19531 0.95051,-0.48177 1.36719,-0.85938 l 3.04687,-15.33203 6.52344,0 -4.21875,21.13281 -5.68359,0" />
    <path
       inkscape:connector-curvature="0"
       id="path3065"
       style="font-style:italic;font-weight:900;fill:#333333;font-family:Roboto;-inkscape-font-specification:Roboto Heavy Italic"
       d="m 166.5798,244.3217 c -0.10418,-0.35156 -0.18882,-0.72265 -0.25391,-1.11328 -0.0651,-0.40364 -0.10418,-0.82031 -0.11719,-1.25 -0.72917,0.85938 -1.54298,1.54297 -2.4414,2.05078 -0.88543,0.49479 -1.88803,0.74219 -3.00782,0.74219 -1.74479,0 -3.11849,-0.58594 -4.12109,-1.75781 -1.0026,-1.1849 -1.3151,-2.72135 -0.9375,-4.60938 0.44271,-2.22655 1.47786,-3.87369 3.10547,-4.94141 1.64062,-1.08071 3.98437,-1.62108 7.03125,-1.62109 l 2.03125,0 0.3125,-1.50391 c 0.18228,-0.97654 0.14972,-1.68618 -0.0977,-2.1289 -0.24741,-0.44269 -0.7422,-0.66405 -1.48437,-0.66406 -0.58595,1e-5 -1.06772,0.1823 -1.44532,0.54687 -0.37761,0.3646 -0.63152,0.91799 -0.76171,1.66016 l -6.3086,-0.0195 -0.0391,-0.11719 c 0.33854,-2.05728 1.40625,-3.6979 3.20312,-4.92188 1.80989,-1.23695 4.05598,-1.85544 6.73829,-1.85547 2.30467,3e-5 4.12107,0.66409 5.44921,1.99219 1.34113,1.31512 1.77082,3.16408 1.28907,5.54688 l -1.58203,7.96875 c -0.24742,1.21094 -0.37763,2.27214 -0.39063,3.18359 -2e-5,0.91146 0.0911,1.85547 0.27344,2.83203 l -6.44531,-0.0195 m -2.8711,-4.27734 c 0.49478,0 0.98958,-0.11719 1.48438,-0.35157 0.49478,-0.24739 0.92447,-0.55989 1.28906,-0.9375 l 0.68359,-3.41796 -1.97265,0 c -0.8073,1e-5 -1.45834,0.26042 -1.95313,0.78125 -0.4948,0.50782 -0.81381,1.14584 -0.95703,1.91406 -0.14324,0.63803 -0.0781,1.13282 0.19531,1.48437 0.27343,0.35157 0.68359,0.52735 1.23047,0.52735" />
    <path
       inkscape:connector-curvature="0"
       id="path3067"
       style="font-style:italic;font-weight:900;fill:#333333;font-family:Roboto;-inkscape-font-specification:Roboto Heavy Italic"
       d="m 183.18136,239.26311 11.23047,0 -1.01563,5.07812 -17.77344,0 5.6836,-28.4375 6.54297,0 -4.66797,23.35938" />
    <path
       inkscape:connector-curvature="0"
       id="path3069"
       style="font-style:italic;font-weight:900;fill:#333333;font-family:Roboto;-inkscape-font-specification:Roboto Heavy Italic"
       d="m 205.07589,244.75139 c -2.82553,0 -4.98047,-0.98307 -6.46484,-2.94922 -1.47136,-1.96614 -1.97266,-4.40755 -1.50391,-7.32422 l 0.11719,-0.74219 c 0.53385,-3.34634 1.73176,-6.00258 3.59375,-7.96875 1.87499,-1.97914 4.30337,-2.96221 7.28515,-2.94922 2.59113,3e-5 4.53124,0.86591 5.82032,2.59766 1.30206,1.73179 1.72524,4.05601 1.26953,6.97266 l -0.54688,3.45703 -11.03515,0 -0.0391,0.0977 c -0.0651,1.1198 0.16927,2.02475 0.70313,2.71485 0.53384,0.67709 1.36718,1.01563 2.5,1.01562 1.08072,1e-5 1.99868,-0.0976 2.7539,-0.29297 0.7552,-0.20832 1.69921,-0.54686 2.83204,-1.01562 l 0.8789,4.02344 c -0.96356,0.67708 -2.17449,1.24349 -3.63281,1.69922 -1.44533,0.4427 -2.95574,0.66406 -4.53125,0.66406 m 2.22656,-16.85547 c -0.79428,2e-5 -1.44532,0.33856 -1.95312,1.01562 -0.4948,0.6771 -0.87241,1.58205 -1.13282,2.71485 l 0.0586,0.0977 4.64844,0 0.0976,-0.50781 c 0.16926,-1.11978 0.12369,-1.95311 -0.13672,-2.5 -0.26043,-0.54686 -0.78777,-0.82029 -1.58203,-0.82031" />
    <path
       inkscape:connector-curvature="0"
       id="path3071"
       style="font-style:italic;font-weight:900;fill:#333333;font-family:Roboto;-inkscape-font-specification:Roboto Heavy Italic"
       d="m 226.81417,244.3217 c -0.10418,-0.35156 -0.18881,-0.72265 -0.25391,-1.11328 -0.0651,-0.40364 -0.10417,-0.82031 -0.11718,-1.25 -0.72918,0.85938 -1.54298,1.54297 -2.44141,2.05078 -0.88542,0.49479 -1.88803,0.74219 -3.00781,0.74219 -1.7448,0 -3.11849,-0.58594 -4.1211,-1.75781 -1.0026,-1.1849 -1.3151,-2.72135 -0.9375,-4.60938 0.44271,-2.22655 1.47787,-3.87369 3.10547,-4.94141 1.64062,-1.08071 3.98437,-1.62108 7.03125,-1.62109 l 2.03125,0 0.3125,-1.50391 c 0.18228,-0.97654 0.14973,-1.68618 -0.0976,-2.1289 -0.24741,-0.44269 -0.7422,-0.66405 -1.48438,-0.66406 -0.58595,1e-5 -1.06772,0.1823 -1.44531,0.54687 -0.37761,0.3646 -0.63152,0.91799 -0.76172,1.66016 l -6.30859,-0.0195 -0.0391,-0.11719 c 0.33854,-2.05728 1.40625,-3.6979 3.20313,-4.92188 1.80989,-1.23695 4.05598,-1.85544 6.73828,-1.85547 2.30467,3e-5 4.12108,0.66409 5.44922,1.99219 1.34113,1.31512 1.77081,3.16408 1.28906,5.54688 l -1.58203,7.96875 c -0.24741,1.21094 -0.37762,2.27214 -0.39062,3.18359 -2e-5,0.91146 0.0911,1.85547 0.27343,2.83203 l -6.44531,-0.0195 m -2.87109,-4.27734 c 0.49478,0 0.98957,-0.11719 1.48437,-0.35157 0.49478,-0.24739 0.92447,-0.55989 1.28906,-0.9375 l 0.6836,-3.41796 -1.97266,0 c -0.8073,1e-5 -1.45834,0.26042 -1.95312,0.78125 -0.4948,0.50782 -0.81381,1.14584 -0.95703,1.91406 -0.14324,0.63803 -0.0781,1.13282 0.19531,1.48437 0.27343,0.35157 0.68358,0.52735 1.23047,0.52735" />
    <path
       inkscape:connector-curvature="0"
       id="path3073"
       style="font-style:italic;font-weight:900;fill:#333333;font-family:Roboto;-inkscape-font-specification:Roboto Heavy Italic"
       d="m 249.90011,229.02873 -2.32422,-0.0195 c -0.59897,2e-5 -1.12631,0.12371 -1.58203,0.37109 -0.45574,0.24742 -0.83986,0.59898 -1.15235,1.05469 l -2.77343,13.90625 -6.52344,0 4.21875,-21.13281 6.15234,0 -0.35156,2.69531 0.0977,0.0586 c 0.54686,-1.01561 1.19139,-1.79035 1.93359,-2.32422 0.7552,-0.54686 1.569,-0.82029 2.44141,-0.82032 0.27342,3e-5 0.56639,0.0261 0.8789,0.0781 0.32551,0.0391 0.59244,0.0912 0.80078,0.15625 l -1.8164,5.97656" />
    <path
       inkscape:connector-curvature="0"
       id="path3075"
       style="font-style:italic;font-weight:900;fill:#333333;font-family:Roboto;-inkscape-font-specification:Roboto Heavy Italic"
       d="m 259.50948,225.94279 c 0.83333,-1.00258 1.77082,-1.77081 2.8125,-2.30468 1.04166,-0.54686 2.13541,-0.82029 3.28125,-0.82032 1.78384,3e-5 3.11196,0.68362 3.98438,2.05079 0.87237,1.3672 1.02211,3.4896 0.44922,6.36718 l -2.61719,13.10547 -6.52344,0 2.61719,-13.125 c 0.2604,-1.28905 0.22785,-2.16144 -0.0977,-2.61719 -0.32553,-0.46873 -0.92449,-0.7031 -1.79687,-0.70312 -0.46876,2e-5 -0.92449,0.11069 -1.36719,0.33203 -0.44272,0.20835 -0.84636,0.50132 -1.21094,0.87891 l -3.04687,15.23437 -6.50391,0 4.21875,-21.13281 6.13281,0 -0.33203,2.73437" />
    <path
       inkscape:connector-curvature="0"
       id="path3077"
       style="font-style:italic;font-weight:900;fill:#333333;font-family:Roboto;-inkscape-font-specification:Roboto Heavy Italic"
       d="m 281.97042,244.3217 c -0.10418,-0.35156 -0.18881,-0.72265 -0.25391,-1.11328 -0.0651,-0.40364 -0.10417,-0.82031 -0.11718,-1.25 -0.72918,0.85938 -1.54298,1.54297 -2.44141,2.05078 -0.88542,0.49479 -1.88803,0.74219 -3.00781,0.74219 -1.7448,0 -3.11849,-0.58594 -4.1211,-1.75781 -1.0026,-1.1849 -1.3151,-2.72135 -0.9375,-4.60938 0.44271,-2.22655 1.47787,-3.87369 3.10547,-4.94141 1.64062,-1.08071 3.98437,-1.62108 7.03125,-1.62109 l 2.03125,0 0.3125,-1.50391 c 0.18228,-0.97654 0.14973,-1.68618 -0.0976,-2.1289 -0.24741,-0.44269 -0.7422,-0.66405 -1.48438,-0.66406 -0.58595,1e-5 -1.06772,0.1823 -1.44531,0.54687 -0.37761,0.3646 -0.63152,0.91799 -0.76172,1.66016 l -6.30859,-0.0195 -0.0391,-0.11719 c 0.33854,-2.05728 1.40625,-3.6979 3.20313,-4.92188 1.80989,-1.23695 4.05598,-1.85544 6.73828,-1.85547 2.30467,3e-5 4.12108,0.66409 5.44922,1.99219 1.34113,1.31512 1.77081,3.16408 1.28906,5.54688 l -1.58203,7.96875 c -0.24741,1.21094 -0.37762,2.27214 -0.39062,3.18359 -2e-5,0.91146 0.0911,1.85547 0.27343,2.83203 l -6.44531,-0.0195 m -2.87109,-4.27734 c 0.49478,0 0.98957,-0.11719 1.48437,-0.35157 0.49478,-0.24739 0.92447,-0.55989 1.28906,-0.9375 l 0.6836,-3.41796 -1.97266,0 c -0.8073,1e-5 -1.45834,0.26042 -1.95312,0.78125 -0.4948,0.50782 -0.81381,1.14584 -0.95703,1.91406 -0.14324,0.63803 -0.0781,1.13282 0.19531,1.48437 0.27343,0.35157 0.68358,0.52735 1.23047,0.52735" />
  </g>
  <g
     id="text2989"
     style="font-size:40px;font-style:normal;font-variant:normal;font-weight:normal;font-stretch:normal;line-height:125%;letter-spacing:0px;word-spacing:0px;fill:#f56560;fill-opacity:1;stroke:none;font-family:Patrick Hand;-inkscape-font-specification:Patrick Hand"
     transform="translate(-59.247765,-207.87639)">
    <path
       inkscape:connector-curvature="0"
       id="path3080"
       style="font-size:28px;font-weight:bold;-inkscape-font-specification:Patrick Hand Bold"
       d="m 300.25141,227.08848 c 0,-2.16533 0.112,-3.81732 0.336,-4.956 0.24267,-1.15732 0.59733,-2.17465 1.064,-3.052 0.46666,-0.89599 1.02666,-1.84798 1.68,-2.856 0.672,-1.00798 1.26,-1.67065 1.764,-1.988 0.20533,-0.11198 0.41999,-0.16798 0.644,-0.168 0.22399,2e-5 0.45733,0.0934 0.7,0.28 0.24266,0.18669 0.36399,0.36402 0.364,0.532 -10e-6,0.14935 -0.42934,0.83068 -1.288,2.044 -0.84,1.19468 -1.4,2.00668 -1.68,2.436 -0.28,0.42935 -0.54134,0.96135 -0.784,1.596 -0.224,0.61601 -0.392,1.40001 -0.504,2.352 -0.0933,0.93334 -0.14,2.05334 -0.14,3.36 0,1.30667 0.20533,2.76267 0.616,4.368 0.41066,1.60533 0.868,2.67867 1.372,3.22 1.58666,1.71733 2.37999,2.78133 2.38,3.192 -1e-5,0.20533 -0.13067,0.364 -0.392,0.476 -0.26134,0.13066 -0.56001,0.196 -0.896,0.196 -0.31734,0 -0.59734,-0.112 -0.84,-0.336 -1.66134,-1.66134 -2.80934,-3.31333 -3.444,-4.956 -0.63467,-1.66133 -0.952,-3.57466 -0.952,-5.74" />
    <path
       inkscape:connector-curvature="0"
       id="path3082"
       style="font-size:28px;font-weight:bold;-inkscape-font-specification:Patrick Hand Bold"
       d="m 309.04297,217.14848 c 0,-0.74665 0.46667,-1.11998 1.4,-1.12 0.42933,2e-5 0.68133,0.26135 0.756,0.784 l 0,4.2 c 0,0.78401 0.009,1.56801 0.028,2.352 0.37333,-0.11199 0.84933,-0.16799 1.428,-0.168 1.81066,1e-5 3.21066,0.60668 4.2,1.82 0.98933,1.21334 1.48399,2.73467 1.484,4.564 -1e-5,1.82934 -0.58801,3.37867 -1.764,4.648 -1.15734,1.25066 -2.65067,1.876 -4.48,1.876 -1.82933,0 -2.744,-0.51334 -2.744,-1.54 0,-1.04533 -0.056,-3.67733 -0.168,-7.896 -0.0933,-4.23732 -0.14,-7.41065 -0.14,-9.52 m 5.656,9.016 c -0.672,-0.52266 -1.38134,-0.78399 -2.128,-0.784 -0.41067,1e-5 -0.83067,0.0747 -1.26,0.224 0.112,1.53067 0.168,4.24667 0.168,8.148 0.31733,0.112 0.644,0.168 0.98,0.168 0.728,0 1.456,-0.27067 2.184,-0.812 1.08266,-0.74667 1.624,-1.88533 1.624,-3.416 0,-1.54933 -0.52267,-2.72533 -1.568,-3.528" />
    <path
       inkscape:connector-curvature="0"
       id="path3084"
       style="font-size:28px;font-weight:bold;-inkscape-font-specification:Patrick Hand Bold"
       d="m 324.55804,223.11248 c 0.98932,1e-5 1.93199,0.28934 2.828,0.868 0.89599,0.57868 1.34399,1.29734 1.344,2.156 -10e-6,0.84001 -0.36401,1.66134 -1.092,2.464 -0.72801,0.784 -1.69868,1.26 -2.912,1.428 -0.52268,0.0747 -1.30667,0.112 -2.352,0.112 0.20533,1.58667 0.60666,2.632 1.204,3.136 0.18666,0.20533 0.43866,0.308 0.756,0.308 1.15732,0 2.12799,-0.364 2.912,-1.092 0.78399,-0.74667 1.34399,-1.12 1.68,-1.12 0.14932,0 0.37332,0.14 0.672,0.42 0.29865,0.28 0.44799,0.54133 0.448,0.784 -1e-5,0.48533 -0.58801,1.18533 -1.764,2.1 -0.52268,0.42933 -1.15734,0.79333 -1.904,1.092 -0.72801,0.28 -1.40934,0.42 -2.044,0.42 -1.62401,0 -2.81867,-1.04534 -3.584,-3.136 -0.48534,-1.288 -0.728,-2.70666 -0.728,-4.256 0,-1.54933 0.364,-2.88399 1.092,-4.004 0.72799,-1.11999 1.87599,-1.67999 3.444,-1.68 m 0.14,1.932 c -0.70934,1e-5 -1.31601,0.40134 -1.82,1.204 -0.18667,0.28001 -0.36401,0.91467 -0.532,1.904 2.61332,0 3.91999,-0.64399 3.92,-1.932 -10e-6,-0.78399 -0.52268,-1.17599 -1.568,-1.176" />
    <path
       inkscape:connector-curvature="0"
       id="path3086"
       style="font-size:28px;font-weight:bold;-inkscape-font-specification:Patrick Hand Bold"
       d="m 332.38229,223.00048 1.4,0.028 c 0.31733,1e-5 0.49466,-0.009 0.532,-0.028 l 0,-5.74 c 0.0187,-0.31732 0.17733,-0.58798 0.476,-0.812 0.29866,-0.22398 0.57866,-0.33598 0.84,-0.336 0.26132,2e-5 0.46666,0.084 0.616,0.252 0.16799,0.16802 0.24266,0.42935 0.224,0.784 -0.0187,0.35468 -0.028,2.29601 -0.028,5.824 l 3.276,-0.112 c 0.55999,1e-5 0.83999,0.32668 0.84,0.98 -10e-6,0.48534 -0.14935,0.84934 -0.448,1.092 -0.28001,0.24267 -0.58801,0.37334 -0.924,0.392 -0.31735,0.0187 -0.63468,0.028 -0.952,0.028 l -1.708,-0.028 c -1e-5,0.76534 0.0747,2.27734 0.224,4.536 0.16799,2.25867 0.29866,3.724 0.392,4.396 0.0933,0.65333 0.11199,1.08266 0.056,1.288 -0.056,0.18666 -0.15868,0.31733 -0.308,0.392 -0.24268,0.112 -0.56934,0.168 -0.98,0.168 -0.41068,0 -0.65334,-0.224 -0.728,-0.672 -0.37334,-2.44533 -0.62534,-5.80533 -0.756,-10.08 -0.16801,0.0187 -0.81201,0.028 -1.932,0.028 -1.12,1e-5 -1.68,-0.32666 -1.68,-0.98 0,-0.93332 0.52266,-1.39999 1.568,-1.4" />
    <path
       inkscape:connector-curvature="0"
       id="path3088"
       style="font-size:28px;font-weight:bold;-inkscape-font-specification:Patrick Hand Bold"
       d="m 349.11929,223.00048 c 0.82132,1e-5 1.23199,0.70001 1.232,2.1 -1e-5,0.14934 -1e-5,0.30801 0,0.476 l -0.056,1.96 c -0.0187,0.616 -0.028,1.22267 -0.028,1.82 l 0.42,6.328 c -1e-5,0.46666 -0.47601,0.7 -1.428,0.7 -0.056,0 -0.19601,0 -0.42,0 -0.20535,0 -0.35468,-0.084 -0.448,-0.252 -0.0747,-0.168 -0.084,-0.37334 -0.028,-0.616 0.0747,-0.24267 0.056,-0.51334 -0.056,-0.812 -0.85868,0.91466 -1.99734,1.372 -3.416,1.372 -2.63201,0 -3.948,-2.03467 -3.948,-6.104 0,-2.25866 0.42,-3.96666 1.26,-5.124 0.85866,-1.15732 2.08133,-1.73599 3.668,-1.736 0.74666,1e-5 1.49332,0.13068 2.24,0.392 0.24265,-0.33599 0.57865,-0.50399 1.008,-0.504 m -2.912,2.548 c -1.06401,10e-6 -1.85734,0.30801 -2.38,0.924 -0.52267,0.61601 -0.78401,1.74534 -0.784,3.388 -1e-5,2.76267 0.74666,4.144 2.24,4.144 0.39199,0 0.82132,-0.17733 1.288,-0.532 0.48532,-0.35467 0.82132,-0.756 1.008,-1.204 0.35466,-1.008 0.53199,-2.10933 0.532,-3.304 -10e-6,-1.19466 -0.14934,-2.06266 -0.448,-2.604 -0.28001,-0.54133 -0.76534,-0.81199 -1.456,-0.812" />
    <path
       inkscape:connector-curvature="0"
       id="path3090"
       style="font-size:28px;font-weight:bold;-inkscape-font-specification:Patrick Hand Bold"
       d="m 359.49547,225.54848 c 0,2.46401 -0.23334,4.40534 -0.7,5.824 -0.448,1.41867 -1.344,3.052 -2.688,4.9 -0.672,0.91466 -1.12933,1.456 -1.372,1.624 -0.24267,0.168 -0.504,0.25199 -0.784,0.252 -0.26133,-1e-5 -0.504,-0.10267 -0.728,-0.308 -0.224,-0.18667 -0.336,-0.38267 -0.336,-0.588 0,-0.056 0.504,-0.812 1.512,-2.268 1.02667,-1.456 1.71733,-2.53867 2.072,-3.248 0.35466,-0.70933 0.59733,-1.60533 0.728,-2.688 0.13066,-1.10133 0.196,-2.31466 0.196,-3.64 0,-1.34399 -0.21467,-2.81866 -0.644,-4.424 -0.41067,-1.62399 -0.868,-2.70665 -1.372,-3.248 -1.64267,-1.69865 -2.464,-2.79065 -2.464,-3.276 0,-0.16798 0.13067,-0.30798 0.392,-0.42 0.28,-0.11198 0.588,-0.16798 0.924,-0.168 0.35467,2e-5 0.59733,0.084 0.728,0.252 1.77333,1.77335 2.968,3.50935 3.584,5.208 0.63466,1.68001 0.952,3.75201 0.952,6.216" />
  </g>
</svg>
