<?xml version="1.0" encoding="UTF-8" standalone="no"?>
<svg
   xmlns:dc="http://purl.org/dc/elements/1.1/"
   xmlns:cc="http://creativecommons.org/ns#"
   xmlns:rdf="http://www.w3.org/1999/02/22-rdf-syntax-ns#"
   xmlns:svg="http://www.w3.org/2000/svg"
   xmlns="http://www.w3.org/2000/svg"
   xmlns:sodipodi="http://sodipodi.sourceforge.net/DTD/sodipodi-0.dtd"
   xmlns:inkscape="http://www.inkscape.org/namespaces/inkscape"
   height="24px"
   id="Layer_1"
   version="1.2"
   viewBox="0 0 24 24"
   width="24px"
   xml:space="preserve"
   inkscape:version="0.48.2 r9819"
   sodipodi:docname="magnifier.svg"><metadata
     id="metadata11"><rdf:RDF><cc:Work
         rdf:about=""><dc:format>image/svg+xml</dc:format><dc:type
           rdf:resource="http://purl.org/dc/dcmitype/StillImage" /></cc:Work></rdf:RDF></metadata><defs
     id="defs9" /><sodipodi:namedview
     pagecolor="#ffffff"
     bordercolor="#666666"
     borderopacity="1"
     objecttolerance="10"
     gridtolerance="10"
     guidetolerance="10"
     inkscape:pageopacity="0"
     inkscape:pageshadow="2"
     inkscape:window-width="640"
     inkscape:window-height="480"
     id="namedview7"
     showgrid="false"
     inkscape:zoom="9.8333333"
     inkscape:cx="12"
     inkscape:cy="12"
     inkscape:window-x="0"
     inkscape:window-y="0"
     inkscape:window-maximized="0"
     inkscape:current-layer="Layer_1" /><path
     d="M19.381,15.956l-2.244-2.283c0.227-0.687,0.363-1.412,0.363-2.173c0-3.859-3.141-7-7-7s-7,3.141-7,7s3.141,7,7,7  c0.762,0,1.488-0.137,2.173-0.364l2.397,2.386c0.601,0.506,1.348,0.783,2.104,0.783c1.727,0,3.131-1.404,3.131-3.131  C20.305,17.334,19.977,16.546,19.381,15.956z M15.48,14.846l2.492,2.531c0.205,0.203,0.332,0.486,0.332,0.797  c0,0.625-0.507,1.131-1.131,1.131c-0.312,0-0.594-0.127-0.816-0.313l-2.512-2.511C14.491,16.045,15.046,15.49,15.48,14.846z   M5.5,11.5c0-2.757,2.243-5,5-5s5,2.243,5,5s-2.243,5-5,5S5.5,14.257,5.5,11.5z"
     id="path5" /></svg>