<?xml version="1.0" encoding="UTF-8" standalone="no"?>
<svg
   xmlns:dc="http://purl.org/dc/elements/1.1/"
   xmlns:cc="http://creativecommons.org/ns#"
   xmlns:rdf="http://www.w3.org/1999/02/22-rdf-syntax-ns#"
   xmlns:svg="http://www.w3.org/2000/svg"
   xmlns="http://www.w3.org/2000/svg"
   xmlns:sodipodi="http://sodipodi.sourceforge.net/DTD/sodipodi-0.dtd"
   xmlns:inkscape="http://www.inkscape.org/namespaces/inkscape"
   version="1.2"
   width="24"
   height="24"
   viewBox="0 0 24 24"
   id="svg2"
   inkscape:version="0.48.2 r9819"
   sodipodi:docname="input-checked.svg">
  <metadata
     id="metadata10">
    <rdf:RDF>
      <cc:Work
         rdf:about="">
        <dc:format>image/svg+xml</dc:format>
        <dc:type
           rdf:resource="http://purl.org/dc/dcmitype/StillImage" />
        <dc:title></dc:title>
      </cc:Work>
    </rdf:RDF>
  </metadata>
  <defs
     id="defs8" />
  <sodipodi:namedview
     pagecolor="#ffffff"
     bordercolor="#666666"
     borderopacity="1"
     objecttolerance="10"
     gridtolerance="10"
     guidetolerance="10"
     inkscape:pageopacity="0"
     inkscape:pageshadow="2"
     inkscape:window-width="640"
     inkscape:window-height="480"
     id="namedview6"
     showgrid="false"
     inkscape:zoom="9.8333333"
     inkscape:cx="12"
     inkscape:cy="12"
     inkscape:window-x="211"
     inkscape:window-y="124"
     inkscape:window-maximized="0"
     inkscape:current-layer="svg2" />
  <path
     d="M 8 5 C 6.346 5 5 6.346 5 8 L 5 16 C 5 17.654 6.346 19 8 19 L 11 19 L 16 19 C 17.654 19 19 17.654 19 16 L 19 13 L 19 8 C 19 6.346 17.654 5 16 5 L 13 5 L 8 5 z M 8 7 L 13 7 L 16 7 C 16.551 7 17 7.448 17 8 L 17 13 L 17 16 C 17 16.551 16.552 17 16 17 L 11 17 L 8 17 C 7.449 17 7 16.552 7 16 L 7 8 C 7 7.86225 7.043125 7.7445781 7.09375 7.625 C 7.2458594 7.266125 7.58675 7 8 7 z "
     id="path2989" />
</svg>
