<?xml version="1.0" encoding="UTF-8" standalone="no"?>
<svg
   xmlns:dc="http://purl.org/dc/elements/1.1/"
   xmlns:cc="http://creativecommons.org/ns#"
   xmlns:rdf="http://www.w3.org/1999/02/22-rdf-syntax-ns#"
   xmlns:svg="http://www.w3.org/2000/svg"
   xmlns="http://www.w3.org/2000/svg"
   xmlns:sodipodi="http://sodipodi.sourceforge.net/DTD/sodipodi-0.dtd"
   xmlns:inkscape="http://www.inkscape.org/namespaces/inkscape"
   height="24px"
   id="Layer_1"
   version="1.2"
   viewBox="0 0 24 24"
   width="24px"
   xml:space="preserve"
   inkscape:version="0.48.2 r9819"
   sodipodi:docname="close.svg"><metadata
     id="metadata9"><rdf:RDF><cc:Work
         rdf:about=""><dc:format>image/svg+xml</dc:format><dc:type
           rdf:resource="http://purl.org/dc/dcmitype/StillImage" /></cc:Work></rdf:RDF></metadata><defs
     id="defs7" /><sodipodi:namedview
     pagecolor="#ffffff"
     bordercolor="#666666"
     borderopacity="1"
     objecttolerance="10"
     gridtolerance="10"
     guidetolerance="10"
     inkscape:pageopacity="0"
     inkscape:pageshadow="2"
     inkscape:window-width="1873"
     inkscape:window-height="1156"
     id="namedview5"
     showgrid="false"
     inkscape:zoom="9.8333333"
     inkscape:cx="-1.9322034"
     inkscape:cy="12"
     inkscape:window-x="47"
     inkscape:window-y="0"
     inkscape:window-maximized="1"
     inkscape:current-layer="Layer_1" /><path
     sodipodi:type="arc"
     style="fill:#ffffff;fill-rule:evenodd;stroke:none;stroke-width:1px;stroke-linecap:butt;stroke-linejoin:miter;stroke-opacity:1;fill-opacity:1"
     id="path2986"
     sodipodi:cx="11.644068"
     sodipodi:cy="11.593221"
     sodipodi:rx="11.644068"
     sodipodi:ry="11.593221"
     d="m 23.288136,11.593221 a 11.644068,11.593221 0 1 1 -23.288136,0 11.644068,11.593221 0 1 1 23.288136,0 z"
     transform="matrix(0.98788284,0,0,1.0002566,0.49702523,0.3105837)" /><path
     d="M17.414,6.586c-0.78-0.781-2.048-0.781-2.828,0L12,9.172L9.414,6.586c-0.78-0.781-2.048-0.781-2.828,0  c-0.781,0.781-0.781,2.047,0,2.828L9.171,12l-2.585,2.586c-0.781,0.781-0.781,2.047,0,2.828C6.976,17.805,7.488,18,8,18  s1.024-0.195,1.414-0.586L12,14.828l2.586,2.586C14.976,17.805,15.488,18,16,18s1.024-0.195,1.414-0.586  c0.781-0.781,0.781-2.047,0-2.828L14.829,12l2.585-2.586C18.195,8.633,18.195,7.367,17.414,6.586z"
     id="path3" /></svg>